<?xml version="1.0" encoding="UTF-8"?>
<svg id="Capa_2" data-name="Capa 2" xmlns="http://www.w3.org/2000/svg" viewBox="0 0 27.32 35.24">
  <defs>
    <style>
      .cls-1 {
        fill-rule: evenodd;
      }

      .cls-1, .cls-2 {
        stroke-width: 0px;
      }
    </style>
  </defs>
  <g id="Capa_1-2" data-name="Capa 1">
    <g id="basil--trash-solid">
      <g id="Trazado_483" data-name="Trazado 483">
        <path class="cls-2" d="m8.81,1.32C8.81.59,9.4,0,10.13,0h7.05c.73,0,1.32.59,1.32,1.32h0v1.32h7.49c.73,0,1.32.59,1.32,1.32,0,.73-.59,1.32-1.32,1.32H1.32C.59,5.29,0,4.7,0,3.97c0-.73.59-1.32,1.32-1.32h7.49v-1.32Z"/>
      </g>
      <g id="Trazado_484" data-name="Trazado 484">
        <path class="cls-1" d="m3.51,10.04c.05-.45.43-.78.88-.78h18.55c.45,0,.83.34.88.78l.35,3.17c.64,5.72.64,11.5,0,17.22l-.03.31c-.23,2.08-1.84,3.75-3.92,4.04-4.34.61-8.75.61-13.09,0-2.08-.29-3.69-1.95-3.93-4.04l-.03-.31c-.64-5.72-.64-11.5,0-17.22l.35-3.18Zm7.95,6.09c0-.73-.59-1.32-1.32-1.32s-1.32.59-1.32,1.32h0v12.34c0,.73.59,1.32,1.32,1.32s1.32-.59,1.32-1.32h0v-12.34Zm7.05,0c0-.73-.59-1.32-1.32-1.32s-1.32.59-1.32,1.32v12.34c0,.73.59,1.32,1.32,1.32s1.32-.59,1.32-1.32v-12.34Z"/>
      </g>
    </g>
  </g>
</svg>