<?xml version="1.0" encoding="UTF-8"?>
<svg id="Capa_2" data-name="Capa 2" xmlns="http://www.w3.org/2000/svg" viewBox="0 0 34.72 34.72">
  <defs>
    <style>
      .cls-1 {
        stroke-width: 0px;
      }
    </style>
  </defs>
  <g id="Capa_1-2" data-name="Capa 1">
    <g id="Grupo_1828" data-name="Grupo 1828">
      <g id="hugeicons--pencil-edit-02">
        <g id="Trazado_481" data-name="Trazado 481">
          <path class="cls-1" d="m10.31,25.91c-.39,0-.78-.16-1.06-.44-.35-.35-.51-.85-.41-1.34.43-2.25,1.08-4.47,1.95-6.6.04-.09.08-.18.14-.26,1.03-1.55,2.26-2.96,3.65-4.18L23.73,3.93h0s0,0,0,0l2.47-2.47c1.95-1.95,5.11-1.95,7.06,0,.94.94,1.46,2.2,1.46,3.53s-.52,2.59-1.46,3.53l-2.47,2.47h0l-9.22,9.22c-1.16,1.33-2.57,2.56-4.12,3.58-.08.05-.17.1-.26.14-2.12.86-4.34,1.52-6.59,1.94-.09.02-.19.03-.28.03Zm3.19-7.11c-.47,1.18-.87,2.39-1.2,3.61,1.23-.33,2.43-.73,3.61-1.2,1.28-.86,2.44-1.89,3.46-3.05l8.23-8.23-2.82-2.82-8.16,8.16c-1.23,1.08-2.26,2.25-3.12,3.53Zm13.4-13.81l2.82,2.82,1.41-1.41c.78-.78.78-2.04,0-2.82-.78-.78-2.04-.78-2.82,0l-1.41,1.41Z"/>
        </g>
        <g id="Trazado_482" data-name="Trazado 482">
          <path class="cls-1" d="m17.36,34.72c-7.88,0-11.84,0-14.6-2.76S0,25.25,0,17.37,0,5.52,2.76,2.76C5.52,0,9.48,0,17.36,0c.83,0,1.5.67,1.5,1.5s-.67,1.5-1.5,1.5c-7.05,0-10.59,0-12.48,1.88s-1.88,5.42-1.88,12.48,0,10.6,1.88,12.48,5.42,1.88,12.48,1.88,10.59,0,12.48-1.88,1.88-5.42,1.88-12.48c0-.83.67-1.5,1.5-1.5s1.5.67,1.5,1.5c0,7.88,0,11.84-2.76,14.6s-6.72,2.76-14.6,2.76Z"/>
        </g>
      </g>
    </g>
  </g>
</svg>