<?xml version="1.0" encoding="UTF-8"?>
<svg id="Capa_2" data-name="Capa 2" xmlns="http://www.w3.org/2000/svg" viewBox="0 0 22 21.99">
  <defs>
    <style>
      .cls-1 {
        fill: #1d1e56;
        stroke-width: 0px;
      }
    </style>
  </defs>
  <g id="Capa_1-2" data-name="Capa 1">
    <g id="hugeicons--pay-by-check">
      <g id="Trazado_507" data-name="Trazado 507">
        <path class="cls-1" d="m17,21.99H5c-3.88,0-5-1.12-5-5v-3c0-3.88,1.12-5,5-5h1c.55,0,1,.45,1,1s-.45,1-1,1h-1c-2.75,0-3,.25-3,3v3c0,2.75.25,3,3,3h12c2.75,0,3-.25,3-3v-3c0-2.27-.35-2.58-.85-2.76-.52-.19-.78-.77-.58-1.29.19-.52.77-.78,1.29-.58,1.98.74,2.15,2.7,2.15,4.64v3c0,3.88-1.12,5-5,5Zm0-4h-6c-.55,0-1-.45-1-1s.45-1,1-1h6c.55,0,1,.45,1,1s-.45,1-1,1Z"/>
      </g>
      <g id="Trazado_508" data-name="Trazado 508">
        <path class="cls-1" d="m10.44,14.03c-.25,0-.5-.02-.75-.05-.48-.01-.96-.04-1.35-.48-.39-.44-.35-.95-.31-1.44-.01-1.67.7-3.38,1.95-4.61L15.49,1.47c.31-.38.67-.73,1.07-1.02.96-.58,2.05-.59,2.94-.09.48.32.84.65,1.16,1.01.36.33.67.7.94,1.1.53.99.51,2.06,0,2.94-.34.5-.69.88-1.08,1.2l-5.59,5.4c-1.12,1.27-2.77,2.01-4.51,2.01Zm-.44-1.49h.01-.01Zm.02-.53c1.31.13,2.6-.37,3.48-1.37l5.7-5.51c.31-.26.53-.51.73-.78.11-.21.12-.56-.04-.86-.13-.19-.36-.45-.61-.68-.03-.03-.06-.06-.09-.09-.22-.25-.46-.48-.74-.67-.19-.1-.52-.1-.78.06-.19.15-.43.38-.64.64-.01.02-.03.03-.04.05l-5.57,6.04c-.87.86-1.36,1.99-1.39,3.16Zm6.22-9.88h0,0Z"/>
      </g>
    </g>
  </g>
</svg>