<?xml version="1.0" encoding="UTF-8"?>
<svg id="Capa_2" data-name="Capa 2" xmlns="http://www.w3.org/2000/svg" viewBox="0 0 42 42">
  <defs>
    <style>
      .cls-1 {
        fill: #ef4646;
      }

      .cls-1, .cls-2, .cls-3 {
        stroke-width: 0px;
      }

      .cls-2 {
        fill: none;
      }

      .cls-3 {
        fill: #fff;
        fill-rule: evenodd;
      }
    </style>
  </defs>
  <g id="Capa_1-2" data-name="Capa 1">
    <g id="Grupo_2058" data-name="Grupo 2058">
      <g id="Elipse_82" data-name="Elipse 82">
        <circle class="cls-1" cx="21" cy="21" r="21"/>
      </g>
      <g id="mingcute--user-remove-2-fill">
        <g id="Trazado_513" data-name="Trazado 513">
          <path class="cls-2" d="m21.95,31.64h-.01l-.08.04h-.04l-.08-.04s-.02,0-.03,0h0s-.02.47-.02.47v.02s.02.01.02.01l.11.08h.03l.11-.08v-.02s.01-.02.01-.02l-.02-.46s0-.02-.02-.02m.28-.12h-.02l-.2.1h-.01v.02l.02.46h0s0,.02,0,.02l.22.1s.02,0,.03,0h0s-.04-.68-.04-.68c0-.01-.01-.02-.02-.02m-.77,0s-.02,0-.03,0h0s-.04.68-.04.68c0,.01,0,.02.02.03h.02l.22-.1h.01v-.02l.02-.46h0s-.01-.02-.01-.02l-.2-.1Z"/>
        </g>
        <g id="Trazado_514" data-name="Trazado 514">
          <path class="cls-3" d="m20.23,8.7c-2.98,0-5.4,2.42-5.4,5.4s2.42,5.4,5.4,5.4,5.4-2.42,5.4-5.4-2.42-5.4-5.4-5.4m0,11.87c-2.34-.01-4.65.61-6.67,1.8-.81.48-1.54,1.1-2.14,1.83-.55.65-.87,1.46-.91,2.31,0,.84.41,1.64,1.08,2.14.67.49,1.44.85,2.25,1.03,2.1.46,4.24.66,6.38.6.25,0,.5,0,.74,0,.6,0,1.07-.5,1.06-1.09,0-.15-.04-.31-.1-.45-.98-2.07-.79-4.51.5-6.41.34-.49.21-1.16-.28-1.5-.15-.1-.32-.16-.49-.18-.47-.05-.95-.08-1.42-.08m4.32,4.32c-.6,0-1.08.48-1.08,1.08s.48,1.08,1.08,1.08h6.47c.6,0,1.08-.48,1.08-1.08s-.48-1.08-1.08-1.08h-6.47Z"/>
        </g>
      </g>
    </g>
  </g>
</svg>