<?xml version="1.0" encoding="UTF-8"?>
<svg id="Capa_2" data-name="Capa 2" xmlns="http://www.w3.org/2000/svg" viewBox="0 0 42 42">
  <defs>
    <style>
      .cls-1 {
        fill: none;
      }

      .cls-1, .cls-2, .cls-3 {
        stroke-width: 0px;
      }

      .cls-2 {
        fill: #fff;
      }

      .cls-3 {
        fill: #eaae3b;
      }
    </style>
  </defs>
  <g id="Capa_1-2" data-name="Capa 1">
    <g id="Grupo_2060" data-name="Grupo 2060">
      <g id="Elipse_82-3" data-name="Elipse 82-3">
        <circle class="cls-3" cx="21" cy="21" r="21"/>
      </g>
      <g id="mingcute--user-info-fill">
        <g id="Trazado_511" data-name="Trazado 511">
          <path class="cls-1" d="m21.49,31.64h-.01l-.08.04h-.04l-.08-.04s-.02,0-.03,0h0s-.02.47-.02.47v.02s.02.01.02.01l.11.08h.03l.11-.08v-.02s.01-.02.01-.02l-.02-.46s0-.02-.02-.02m.28-.12h-.02l-.2.1h-.01v.02l.02.46h0s0,.02,0,.02l.22.1s.02,0,.03,0h0s-.04-.68-.04-.68c0-.01-.01-.02-.02-.02m-.77,0s-.02,0-.03,0h0s-.04.68-.04.68c0,.01,0,.02.02.03h.02l.22-.1h.01v-.02l.02-.46h0s-.01-.02-.01-.02l-.2-.1Z"/>
        </g>
        <g id="Trazado_512" data-name="Trazado 512">
          <path class="cls-2" d="m14.37,14.1c0-2.98,2.42-5.4,5.4-5.4s5.4,2.42,5.4,5.4-2.42,5.4-5.4,5.4h0c-2.98,0-5.4-2.42-5.4-5.4m-1.27,8.28c2.02-1.19,4.32-1.81,6.67-1.8.47,0,.95.03,1.42.08.59.06,1.02.6.96,1.19-.02.18-.08.35-.18.49-1.29,1.9-1.48,4.34-.5,6.41.26.54.03,1.18-.51,1.44-.14.07-.29.1-.45.1h-.74c-2.14.06-4.29-.14-6.38-.6-.81-.19-1.58-.54-2.25-1.03-.68-.51-1.08-1.31-1.08-2.15.04-.85.36-1.66.91-2.31.6-.73,1.32-1.34,2.13-1.82h0Zm12.06,3.59c0-.6.48-1.08,1.08-1.08h1.07c.6,0,1.09.49,1.09,1.09h0v2.29c.52.3.69.96.4,1.47-.19.33-.55.54-.94.54h-.53c-.6,0-1.09-.49-1.09-1.09h0v-2.15c-.6,0-1.08-.48-1.08-1.08h0m2.16-4.32c-.6,0-1.08.48-1.08,1.08,0,.55.41,1.01.96,1.08h.13c.6,0,1.08-.47,1.08-1.07,0-.55-.41-1.01-.96-1.08h-.13Z"/>
        </g>
      </g>
    </g>
  </g>
</svg>